<svg width="18" height="14" viewBox="0 0 18 14" fill="none" xmlns="http://www.w3.org/2000/svg">
<path d="M1.12112 0.191505C0.864087 -0.0627916 0.448462 -0.0627916 0.191431 0.191505C-0.0656006 0.445802 -0.0628662 0.864162 0.191431 1.12119L2.16018 3.08994C2.41721 3.34697 2.83284 3.34697 3.08713 3.08994C3.34143 2.83291 3.34417 2.41729 3.08713 2.16299L1.12112 0.191505ZM16.3789 0.191505L14.4102 2.16026C14.1531 2.41729 14.1531 2.83291 14.4102 3.08721C14.6672 3.34151 15.0828 3.34424 15.3371 3.08721L17.3059 1.11846C17.5629 0.861427 17.5629 0.445802 17.3059 0.191505C17.0489 -0.0627916 16.6332 -0.065526 16.3789 0.191505ZM0.191431 13.8087C0.448462 14.0657 0.864087 14.0657 1.11838 13.8087L3.08713 11.8399C3.34417 11.5829 3.34417 11.1673 3.08713 10.913C2.8301 10.6587 2.41448 10.656 2.16018 10.913L0.191431 12.879C-0.0656006 13.136 -0.0656006 13.5517 0.191431 13.806V13.8087ZM16.3789 13.8087C16.636 14.0657 17.0516 14.0657 17.3059 13.8087C17.5602 13.5517 17.5629 13.136 17.3059 12.8817L15.3371 10.913C15.0801 10.656 14.6645 10.656 14.4102 10.913C14.1559 11.17 14.1531 11.5856 14.4102 11.8399L16.3789 13.8087ZM8.75002 7.0001C9.21415 7.0001 9.65927 6.81572 9.98746 6.48754C10.3156 6.15935 10.5 5.71423 10.5 5.2501C10.5 4.78597 10.3156 4.34085 9.98746 4.01266C9.65927 3.68447 9.21415 3.5001 8.75002 3.5001C8.2859 3.5001 7.84078 3.68447 7.51259 4.01266C7.1844 4.34085 7.00002 4.78597 7.00002 5.2501C7.00002 5.71423 7.1844 6.15935 7.51259 6.48754C7.84078 6.81572 8.2859 7.0001 8.75002 7.0001ZM5.79963 9.1876C5.72581 9.39268 5.68752 9.61416 5.68752 9.84385C5.68752 10.2075 5.9801 10.5001 6.34377 10.5001H11.1563C11.5199 10.5001 11.8125 10.2075 11.8125 9.84385C11.8125 9.61416 11.7742 9.39268 11.7004 9.1876C11.6867 9.14932 11.6731 9.11377 11.6567 9.07822C11.3996 8.46846 10.8418 8.01455 10.1719 7.90244C10.0653 7.8833 9.95588 7.8751 9.84377 7.8751H7.65627C7.54416 7.8751 7.43479 7.8833 7.32815 7.90244C7.30627 7.90518 7.28166 7.91065 7.25979 7.91611C6.57893 8.05557 6.02659 8.54502 5.79963 9.1876ZM4.80706 6.1251C4.97942 6.1251 5.15009 6.09115 5.30933 6.02519C5.46857 5.95923 5.61326 5.86255 5.73513 5.74068C5.85701 5.6188 5.95369 5.47411 6.01965 5.31487C6.08561 5.15563 6.11956 4.98496 6.11956 4.8126C6.11956 4.64024 6.08561 4.46957 6.01965 4.31033C5.95369 4.15109 5.85701 4.0064 5.73513 3.88452C5.61326 3.76264 5.46857 3.66597 5.30933 3.60001C5.15009 3.53405 4.97942 3.5001 4.80706 3.5001C4.6347 3.5001 4.46402 3.53405 4.30478 3.60001C4.14554 3.66597 4.00085 3.76264 3.87898 3.88452C3.7571 4.0064 3.66042 4.15109 3.59446 4.31033C3.5285 4.46957 3.49456 4.64024 3.49456 4.8126C3.49456 4.98496 3.5285 5.15563 3.59446 5.31487C3.66042 5.47411 3.7571 5.6188 3.87898 5.74068C4.00085 5.86255 4.14554 5.95923 4.30478 6.02519C4.46402 6.09115 4.6347 6.1251 4.80706 6.1251ZM4.08245 7.0001C3.27854 7.0001 2.62502 7.65361 2.62502 8.45752C2.62502 8.85947 2.95042 9.1876 3.3551 9.1876H4.88909C5.10784 8.25518 5.78596 7.50049 6.6719 7.1751C6.46682 7.06299 6.22893 7.0001 5.9801 7.0001H4.08245ZM14.1449 9.1876C14.5469 9.1876 14.875 8.86221 14.875 8.45752C14.875 7.65088 14.2215 7.0001 13.4176 7.0001H11.5199C11.2684 7.0001 11.0332 7.06299 10.8281 7.1751C11.7141 7.50049 12.3922 8.25518 12.611 9.1876H14.1449ZM12.6875 6.1251C12.8599 6.1251 13.0306 6.09115 13.1898 6.02519C13.349 5.95923 13.4937 5.86255 13.6156 5.74068C13.7375 5.6188 13.8342 5.47411 13.9001 5.31487C13.9661 5.15563 14 4.98496 14 4.8126C14 4.64024 13.9661 4.46957 13.9001 4.31033C13.8342 4.15109 13.7375 4.0064 13.6156 3.88452C13.4937 3.76264 13.349 3.66597 13.1898 3.60001C13.0306 3.53405 12.8599 3.5001 12.6875 3.5001C12.5152 3.5001 12.3445 3.53405 12.1853 3.60001C12.026 3.66597 11.8813 3.76264 11.7594 3.88452C11.6376 4.0064 11.5409 4.15109 11.4749 4.31033C11.409 4.46957 11.375 4.64024 11.375 4.8126C11.375 4.98496 11.409 5.15563 11.4749 5.31487C11.5409 5.47411 11.6376 5.6188 11.7594 5.74068C11.8813 5.86255 12.026 5.95923 12.1853 6.02519C12.3445 6.09115 12.5152 6.1251 12.6875 6.1251Z" fill="black"/>
</svg>
