<svg width="16" height="18" viewBox="0 0 16 18" fill="none" xmlns="http://www.w3.org/2000/svg">
<path d="M5.46875 0.84375C5.46875 0.376172 5.09258 0 4.625 0C4.15742 0 3.78125 0.376172 3.78125 0.84375V2.25H2.375C1.13398 2.25 0.125 3.25898 0.125 4.5V5.0625V6.75V15.75C0.125 16.991 1.13398 18 2.375 18H13.625C14.866 18 15.875 16.991 15.875 15.75V6.75V5.0625V4.5C15.875 3.25898 14.866 2.25 13.625 2.25H12.2188V0.84375C12.2188 0.376172 11.8426 0 11.375 0C10.9074 0 10.5312 0.376172 10.5312 0.84375V2.25H5.46875V0.84375ZM1.8125 6.75H14.1875V15.75C14.1875 16.0594 13.9344 16.3125 13.625 16.3125H2.375C2.06562 16.3125 1.8125 16.0594 1.8125 15.75V6.75ZM8 8.15625C7.53242 8.15625 7.15625 8.53242 7.15625 9V10.6875H5.46875C5.00117 10.6875 4.625 11.0637 4.625 11.5312C4.625 11.9988 5.00117 12.375 5.46875 12.375H7.15625V14.0625C7.15625 14.5301 7.53242 14.9062 8 14.9062C8.46758 14.9062 8.84375 14.5301 8.84375 14.0625V12.375H10.5312C10.9988 12.375 11.375 11.9988 11.375 11.5312C11.375 11.0637 10.9988 10.6875 10.5312 10.6875H8.84375V9C8.84375 8.53242 8.46758 8.15625 8 8.15625Z" fill="black"/>
</svg>
