<svg width="13" height="14" viewBox="0 0 13 14" fill="none" xmlns="http://www.w3.org/2000/svg">
<path d="M3.5 0C3.98398 0 4.375 0.391016 4.375 0.875V1.75H7.875V0.875C7.875 0.391016 8.26602 0 8.75 0C9.23398 0 9.625 0.391016 9.625 0.875V1.75H10.9375C11.6621 1.75 12.25 2.33789 12.25 3.0625V4.375H0V3.0625C0 2.33789 0.587891 1.75 1.3125 1.75H2.625V0.875C2.625 0.391016 3.01602 0 3.5 0ZM0 5.25H12.25V12.6875C12.25 13.4121 11.6621 14 10.9375 14H1.3125C0.587891 14 0 13.4121 0 12.6875V5.25ZM2.1875 7C1.94687 7 1.75 7.19688 1.75 7.4375V9.1875C1.75 9.42813 1.94687 9.625 2.1875 9.625H10.0625C10.3031 9.625 10.5 9.42813 10.5 9.1875V7.4375C10.5 7.19688 10.3031 7 10.0625 7H2.1875Z" fill="black"/>
</svg>
