<svg width="12" height="16" viewBox="0 0 12 16" fill="none" xmlns="http://www.w3.org/2000/svg">
<path d="M0 14C0 15.1031 0.896875 16 2 16H7V12C7 11.4469 7.44688 11 8 11H12V2C12 0.896875 11.1031 0 10 0H2C0.896875 0 0 0.896875 0 2V14ZM5.35313 2.35313L2.35313 5.35313C2.15938 5.54688 1.84063 5.54688 1.64688 5.35313C1.45312 5.15938 1.45312 4.84062 1.64688 4.64687L4.64687 1.64688C4.84062 1.45312 5.15938 1.45312 5.35313 1.64688C5.54688 1.84063 5.54688 2.15938 5.35313 2.35313ZM8.35312 3.35313L3.35313 8.35312C3.15938 8.54688 2.84062 8.54688 2.64687 8.35312C2.45312 8.15937 2.45312 7.84062 2.64687 7.64687L7.64687 2.64687C7.84062 2.45312 8.15937 2.45312 8.35312 2.64687C8.54688 2.84062 8.54688 3.15938 8.35312 3.35313ZM12 12H8V16L12 12Z" fill="black"/>
</svg>
