<svg width="18" height="16" viewBox="0 0 18 16" fill="none" xmlns="http://www.w3.org/2000/svg">
<path d="M1.67344 9.561L8.02617 15.4919C8.28984 15.738 8.63789 15.8751 9 15.8751C9.36211 15.8751 9.71016 15.738 9.97383 15.4919L16.3266 9.561C17.3953 8.56608 18 7.17038 18 5.71139V5.50749C18 3.05007 16.2246 0.954754 13.8023 0.550457C12.1992 0.283269 10.568 0.807098 9.42188 1.95319L9 2.37507L8.57812 1.95319C7.43203 0.807098 5.80078 0.283269 4.19766 0.550457C1.77539 0.954754 0 3.05007 0 5.50749V5.71139C0 7.17038 0.604687 8.56608 1.67344 9.561Z" fill="black"/>
</svg>
