<svg width="23" height="18" viewBox="0 0 23 18" fill="none" xmlns="http://www.w3.org/2000/svg">
<path d="M3.10058 10.8668C3.44511 10.2234 3.33964 9.43242 2.83691 8.90508C2.08808 8.11758 1.6873 7.17188 1.6873 6.1875C1.6873 3.95508 3.93027 1.6875 7.3123 1.6875C10.6943 1.6875 12.9373 3.95508 12.9373 6.1875C12.9373 8.41992 10.6943 10.6875 7.3123 10.6875C6.85175 10.6875 6.40526 10.6418 5.98339 10.5609C5.61776 10.4906 5.23808 10.5398 4.90409 10.7086C4.75995 10.7824 4.6123 10.8527 4.46112 10.9195C3.89862 11.1727 3.30448 11.3941 2.70683 11.5523C2.80527 11.3906 2.89667 11.2324 2.98456 11.0742C3.02323 11.0074 3.06191 10.9371 3.09706 10.8668H3.10058ZM-0.000203548 6.1875C-0.000203548 7.65703 0.604484 9.00352 1.61347 10.0652C1.58183 10.125 1.54667 10.1883 1.51503 10.2445C1.15292 10.8914 0.731046 11.5277 0.228312 12.0762C-0.00371917 12.3223 -0.0634848 12.6809 0.0665933 12.9867C0.203703 13.2996 0.506046 13.5 0.843546 13.5C2.35527 13.5 3.88456 13.0324 5.15722 12.4559C5.32597 12.3785 5.49472 12.2977 5.65644 12.2168C6.1873 12.3223 6.74276 12.375 7.3123 12.375C11.3517 12.375 14.6248 9.60469 14.6248 6.1875C14.6248 2.77031 11.3517 0 7.3123 0C3.27284 0 -0.000203548 2.77031 -0.000203548 6.1875ZM15.1873 16.875C15.7568 16.875 16.3088 16.8188 16.8432 16.7168C17.0049 16.7977 17.1736 16.8785 17.3424 16.9559C18.615 17.5324 20.1443 18 21.656 18C21.9935 18 22.2959 17.7996 22.4295 17.4902C22.5631 17.1809 22.4998 16.8223 22.2678 16.5797C21.7685 16.0312 21.3467 15.3949 20.981 14.748C20.9494 14.6883 20.9142 14.6285 20.8826 14.5687C21.8951 13.5035 22.4998 12.157 22.4998 10.6875C22.4998 7.36875 19.4096 4.6582 15.5318 4.50703C15.676 5.04141 15.7498 5.60391 15.7498 6.1875V6.20859C18.8154 6.44414 20.8123 8.58164 20.8123 10.6875C20.8123 11.6719 20.4115 12.6176 19.6627 13.4016C19.16 13.9289 19.0545 14.7234 19.399 15.3633C19.4377 15.4336 19.4764 15.5039 19.5115 15.5707C19.5994 15.7289 19.6943 15.8871 19.7892 16.0488C19.1916 15.8906 18.5975 15.6727 18.035 15.416C17.8838 15.3492 17.7361 15.2789 17.592 15.2051C17.258 15.0363 16.8783 14.9871 16.5127 15.0574C16.0873 15.1418 15.6443 15.184 15.1838 15.184C13.0146 15.184 11.3166 14.2523 10.3744 12.9938C9.81191 13.1836 9.22128 13.3242 8.61659 13.4086C9.80839 15.4617 12.3045 16.875 15.1873 16.875Z" fill="black"/>
</svg>
