<svg width="20" height="14" viewBox="0 0 20 14" fill="none" xmlns="http://www.w3.org/2000/svg">
<path d="M13.3 12.4173C13.3 13.1699 12.699 13.7738 11.9501 13.7738C11.2011 13.7738 10.5943 13.1699 10.5943 12.4173C10.5943 11.6647 11.2041 11.0548 11.9501 11.0548C12.702 11.0548 13.3 11.6647 13.3 12.4173ZM5.78389 11.0548C5.03494 11.0548 4.43401 11.6676 4.43401 12.4173C4.43401 13.1669 5.03494 13.7738 5.78389 13.7738C6.53283 13.7738 7.13968 13.1699 7.13968 12.4173C7.13968 11.6647 6.53283 11.0548 5.78389 11.0548ZM14.4189 3.02298C5.47306 3.02298 3.19367 2.64221 0.769226 0.0720215C1.78755 1.60997 2.34704 4.50144 11.8139 4.36162C21.6804 4.21289 15.6622 6.92289 13.9098 9.98094C19.4366 5.02202 23.3648 3.02298 14.4189 3.02298Z" fill="url(#paint0_linear_897_2706)"/>
<defs>
<linearGradient id="paint0_linear_897_2706" x1="10.2419" y1="0.0720215" x2="10.2419" y2="13.7738" gradientUnits="userSpaceOnUse">
<stop stop-color="#362677"/>
<stop offset="1" stop-color="#781740"/>
</linearGradient>
</defs>
</svg>
