<svg width="21" height="16" viewBox="0 0 21 16" fill="none" xmlns="http://www.w3.org/2000/svg">
<path d="M2.25 0.125C1.00898 0.125 0 1.13398 0 2.375V3.5H20.25V2.375C20.25 1.13398 19.241 0.125 18 0.125H2.25ZM20.25 6.875H0V13.625C0 14.866 1.00898 15.875 2.25 15.875H18C19.241 15.875 20.25 14.866 20.25 13.625V6.875ZM3.9375 11.375H6.1875C6.49687 11.375 6.75 11.6281 6.75 11.9375C6.75 12.2469 6.49687 12.5 6.1875 12.5H3.9375C3.62812 12.5 3.375 12.2469 3.375 11.9375C3.375 11.6281 3.62812 11.375 3.9375 11.375ZM7.875 11.9375C7.875 11.6281 8.12813 11.375 8.4375 11.375H12.9375C13.2469 11.375 13.5 11.6281 13.5 11.9375C13.5 12.2469 13.2469 12.5 12.9375 12.5H8.4375C8.12813 12.5 7.875 12.2469 7.875 11.9375Z" fill="black"/>
</svg>
