<svg width="18" height="14" viewBox="0 0 18 14" fill="none" xmlns="http://www.w3.org/2000/svg">
<path d="M2.18754 1.3125C2.18754 0.964403 2.32582 0.630564 2.57197 0.384422C2.81811 0.138281 3.15195 0 3.50004 0C3.84814 0 4.18198 0.138281 4.42812 0.384422C4.67426 0.630564 4.81254 0.964403 4.81254 1.3125C4.81254 1.6606 4.67426 1.99444 4.42812 2.24058C4.18198 2.48672 3.84814 2.625 3.50004 2.625C3.15195 2.625 2.81811 2.48672 2.57197 2.24058C2.32582 1.99444 2.18754 1.6606 2.18754 1.3125ZM3.93754 6.60898V8.38906L5.33208 9.78359C5.52622 9.97773 5.65473 10.2266 5.69848 10.4973L6.11411 12.9828C6.1934 13.4586 5.87075 13.9098 5.39497 13.9891C4.91918 14.0684 4.46801 13.7457 4.38872 13.2699L3.9977 10.9211L1.82661 8.75C1.49848 8.42188 1.31254 7.97617 1.31254 7.51133V5.10234C1.31254 4.21641 2.02895 3.5 2.91489 3.5C3.57387 3.5 4.18637 3.82812 4.55278 4.375L5.84887 6.31914L6.12504 6.45586V4.375C6.12504 3.89102 6.51606 3.5 7.00004 3.5H10.5C10.984 3.5 11.375 3.89102 11.375 4.375V6.45859L11.6512 6.32188L12.9473 4.375C13.311 3.82812 13.9262 3.5 14.5852 3.5C15.4711 3.5 16.1875 4.21641 16.1875 5.10234V7.51133C16.1875 7.97617 16.0043 8.42188 15.6762 8.75L13.5051 10.9211L13.1141 13.2699C13.0348 13.7457 12.5836 14.0684 12.1079 13.9891C11.6321 13.9098 11.3094 13.4586 11.3887 12.9828L11.8043 10.4973C11.8481 10.2266 11.9766 9.97773 12.1707 9.78359L13.5653 8.38906V6.60898L13.0457 7.38828C12.92 7.57969 12.745 7.73281 12.5399 7.83398L10.9102 8.64883C10.8446 8.68437 10.7762 8.70898 10.7024 8.72539C10.6313 8.7418 10.5575 8.75 10.4864 8.74727H7.01919C6.95083 8.75 6.88247 8.7418 6.81411 8.72813C6.73481 8.71172 6.66098 8.68438 6.59262 8.64609L4.96567 7.83125C4.76059 7.73008 4.58833 7.57422 4.45981 7.38555L3.94028 6.60625L3.93754 6.60898ZM0.0629339 12.7996L1.36997 9.53203L2.71528 10.8773L1.68715 13.4477C1.50668 13.8961 0.99809 14.1148 0.549653 13.9344C0.101215 13.7539 -0.117535 13.248 0.0629339 12.7996ZM14 0C14.3481 0 14.682 0.138281 14.9281 0.384422C15.1743 0.630564 15.3125 0.964403 15.3125 1.3125C15.3125 1.6606 15.1743 1.99444 14.9281 2.24058C14.682 2.48672 14.3481 2.625 14 2.625C13.6519 2.625 13.3181 2.48672 13.072 2.24058C12.8258 1.99444 12.6875 1.6606 12.6875 1.3125C12.6875 0.964403 12.8258 0.630564 13.072 0.384422C13.3181 0.138281 13.6519 0 14 0ZM16.1301 9.53203L17.4372 12.7996C17.6176 13.248 17.3989 13.7566 16.9504 13.9371C16.502 14.1176 15.9934 13.8988 15.8129 13.4504L14.7848 10.8801L16.1301 9.53477V9.53203Z" fill="black"/>
</svg>
