<svg width="14" height="14" viewBox="0 0 14 14" fill="none" xmlns="http://www.w3.org/2000/svg">
<path d="M4.777 1.2332C5.25551 0.464844 6.0977 0 7.00004 0C7.90239 0 8.74457 0.464844 9.22309 1.2332L10.2786 2.92031L11.0168 2.49375C11.2465 2.35977 11.5336 2.37891 11.7442 2.54023C11.9547 2.70156 12.0477 2.975 11.9793 3.23203L11.3395 5.62187C11.2465 5.97187 10.8856 6.17969 10.5356 6.08672L8.14575 5.44687C7.88871 5.37852 7.70004 5.1625 7.6645 4.9C7.62895 4.6375 7.75746 4.37773 7.98715 4.24648L8.76371 3.79805L7.73832 2.16016C7.57973 1.90586 7.30082 1.75 7.00004 1.75C6.69926 1.75 6.42035 1.90586 6.26176 2.16016L5.78325 2.92578C5.53168 3.33047 5.00121 3.45898 4.59106 3.21289C4.1727 2.96133 4.03871 2.41445 4.29848 1.99883L4.777 1.2332ZM11.7442 6.88789C12.1543 6.6418 12.6848 6.77031 12.9364 7.175L13.6036 8.24414C13.8606 8.65703 13.9973 9.13008 14.0028 9.6168C14.011 11.0687 12.8352 12.2527 11.3832 12.2527L8.75004 12.25V13.125C8.75004 13.3902 8.59145 13.6309 8.34536 13.732C8.09926 13.8332 7.81762 13.7785 7.62895 13.5898L5.87895 11.8398C5.62192 11.5828 5.62192 11.1672 5.87895 10.9129L7.62895 9.16289C7.81762 8.97422 8.09926 8.91953 8.34536 9.0207C8.59145 9.12187 8.75004 9.3625 8.75004 9.62773V10.5027H11.3805C11.8618 10.5027 12.2528 10.109 12.25 9.62773C12.25 9.46641 12.2036 9.30781 12.1188 9.17109L11.4516 8.10195C11.1918 7.68633 11.3231 7.13945 11.7442 6.88789ZM1.77465 6.04023L0.984418 5.58359C0.75473 5.44961 0.626215 5.19258 0.661761 4.93008C0.697308 4.66758 0.88598 4.45156 1.14301 4.3832L3.53286 3.74336C3.88285 3.65039 4.24379 3.8582 4.33676 4.2082L4.9766 6.59531C5.04496 6.85234 4.952 7.12305 4.74145 7.28711C4.5309 7.45117 4.24379 7.46758 4.01411 7.33359L3.2895 6.91523L1.88129 9.16836C1.79653 9.30508 1.75004 9.46367 1.75004 9.625C1.74731 10.1062 2.13832 10.5 2.61957 10.5H3.50004C3.98403 10.5 4.37504 10.891 4.37504 11.375C4.37504 11.859 3.98403 12.25 3.50004 12.25H2.61957C1.16762 12.25 -0.00816046 11.0687 4.26638e-05 9.61406C0.00277704 9.12734 0.139496 8.6543 0.399261 8.24141L1.77465 6.04023Z" fill="black"/>
</svg>
