<svg width="16" height="19" viewBox="0 0 16 19" fill="none" xmlns="http://www.w3.org/2000/svg">
<path d="M7.875 9.25C5.37891 9.25 3.375 7.24609 3.375 4.75C3.375 2.28906 5.37891 0.25 7.875 0.25C10.3359 0.25 12.375 2.28906 12.375 4.75C12.375 7.24609 10.3359 9.25 7.875 9.25ZM11.0039 10.375C13.6055 10.375 15.75 12.5195 15.75 15.1211V16.5625C15.75 17.5117 14.9766 18.25 14.0625 18.25H1.6875C0.738281 18.25 0 17.5117 0 16.5625V15.1211C0 12.5195 2.10938 10.375 4.71094 10.375H5.30859C6.08203 10.7617 6.96094 10.9375 7.875 10.9375C8.78906 10.9375 9.63281 10.7617 10.4062 10.375H11.0039Z" fill="#36383C"/>
</svg>
