<svg width="10" height="11" viewBox="0 0 10 11" fill="none" xmlns="http://www.w3.org/2000/svg">
<path d="M8.67208 1.07199C8.42403 0.820625 7.42012 0.0192582 5.18184 0.00851602C5.18184 0.00851602 2.54317 -0.165507 1.25802 1.13215C0.543172 1.91848 0.291218 3.07219 0.263875 4.5009C0.236531 5.92961 0.203328 8.60656 2.54903 9.33273H2.55098L2.54903 10.4413C2.54903 10.4413 2.53341 10.8904 2.80294 10.9806C3.12716 11.0923 3.31856 10.7507 3.62911 10.3833C3.79903 10.1814 4.03341 9.88488 4.21114 9.6593C5.81661 9.80754 7.04903 9.46809 7.18966 9.41867C7.51388 9.30266 9.34786 9.04484 9.64473 6.36789C9.95333 3.605 9.4963 1.86047 8.67208 1.07199ZM8.94356 6.16594C8.69161 8.40031 7.20528 8.54211 6.93184 8.63879C6.81466 8.67961 5.73067 8.97609 4.36934 8.87941C4.36934 8.87941 3.35372 10.2265 3.03731 10.5767C2.9338 10.6905 2.82052 10.6798 2.82247 10.4542C2.82247 10.306 2.83028 8.61301 2.83028 8.61301C2.82833 8.61301 2.82833 8.61301 2.83028 8.61301C0.841999 8.00715 0.959187 5.72766 0.980672 4.53527C1.00216 3.34289 1.20723 2.36535 1.8127 1.70793C2.90059 0.622969 5.14083 0.784102 5.14083 0.784102C7.03341 0.792696 7.93966 1.42004 8.15059 1.63059C8.84786 2.28801 9.20333 3.86066 8.94356 6.16594ZM6.22872 4.43C6.23653 4.61477 5.98458 4.62766 5.97677 4.44289C5.95528 3.97023 5.75411 3.74035 5.34005 3.71457C5.17208 3.70383 5.1877 3.42668 5.35372 3.43742C5.89864 3.46965 6.20138 3.8134 6.22872 4.43ZM6.6252 4.67277C6.64473 3.76184 6.12716 3.04856 5.14473 2.96906C4.97872 2.95617 4.9963 2.67902 5.16231 2.69191C6.29512 2.78215 6.89864 3.63938 6.87716 4.67922C6.8752 4.86399 6.6213 4.85539 6.6252 4.67277ZM7.54317 4.96066C7.54513 5.14543 7.29122 5.14758 7.29122 4.96281C7.2795 3.21184 6.21895 2.25793 4.93184 2.24719C4.76583 2.24504 4.76583 1.97004 4.93184 1.97004C6.3713 1.98078 7.5295 3.07434 7.54317 4.96066ZM7.32247 7.06828V7.07258C7.11153 7.48078 6.717 7.93195 6.31075 7.78801L6.30684 7.78156C5.89473 7.65481 4.92403 7.1048 4.31075 6.5677C3.99434 6.2927 3.70528 5.96828 3.48262 5.65676C3.28145 5.37961 3.07833 5.0509 2.88106 4.65559C2.46505 3.82844 2.37325 3.45891 2.37325 3.45891C2.24239 3.01203 2.65059 2.57805 3.02364 2.34602H3.02755C3.20723 2.24289 3.37911 2.27727 3.49434 2.42981C3.49434 2.42981 3.73653 2.74777 3.84005 2.90461C3.9377 3.0507 4.06856 3.28488 4.13692 3.41594C4.25606 3.65012 4.18184 3.88859 4.06466 3.98742L3.83028 4.19367C3.71114 4.29895 3.72677 4.49445 3.72677 4.49445C3.72677 4.49445 4.07442 5.94035 5.37325 6.30559C5.37325 6.30559 5.55098 6.32277 5.64669 6.19172L5.83419 5.93391C5.92403 5.805 6.14083 5.72336 6.35372 5.85441C6.64083 6.03273 7.00606 6.30988 7.24825 6.56125C7.38497 6.68371 7.41622 6.87063 7.32247 7.06828Z" fill="#762973"/>
</svg>
