<svg width="16" height="16" viewBox="0 0 16 16" fill="none" xmlns="http://www.w3.org/2000/svg">
<path d="M13.391 2.41367C11.918 0.937109 9.95625 0.125 7.87148 0.125C3.56836 0.125 0.0667969 3.62656 0.0667969 7.92969C0.0667969 9.3043 0.425391 10.6473 1.10742 11.832L0 15.875L4.13789 14.7887C5.27695 15.4109 6.56016 15.7379 7.86797 15.7379H7.87148C12.1711 15.7379 15.75 12.2363 15.75 7.9332C15.75 5.84844 14.8641 3.89023 13.391 2.41367ZM7.87148 14.423C6.7043 14.423 5.56172 14.1102 4.5668 13.5195L4.33125 13.3789L1.87734 14.0223L2.53125 11.6281L2.37656 11.382C1.72617 10.3484 1.38516 9.15664 1.38516 7.92969C1.38516 4.3543 4.29609 1.44336 7.875 1.44336C9.6082 1.44336 11.2359 2.11836 12.4594 3.34531C13.6828 4.57227 14.4352 6.2 14.4316 7.9332C14.4316 11.5121 11.4469 14.423 7.87148 14.423ZM11.4293 9.56445C11.2359 9.46602 10.2762 8.99492 10.0969 8.93164C9.91758 8.86484 9.7875 8.8332 9.65742 9.03008C9.52734 9.22695 9.15469 9.66289 9.03867 9.79648C8.92617 9.92656 8.81016 9.94414 8.6168 9.8457C7.4707 9.27266 6.71836 8.82266 5.9625 7.52539C5.76211 7.18086 6.16289 7.20547 6.53555 6.46016C6.59883 6.33008 6.56719 6.21758 6.51797 6.11914C6.46875 6.0207 6.07852 5.06094 5.9168 4.6707C5.75859 4.29102 5.59688 4.34375 5.47734 4.33672C5.36484 4.32969 5.23477 4.32969 5.10469 4.32969C4.97461 4.32969 4.76367 4.37891 4.58437 4.57227C4.40508 4.76914 3.90234 5.24023 3.90234 6.2C3.90234 7.15977 4.60195 8.08789 4.69688 8.21797C4.79531 8.34805 6.07148 10.3168 8.02969 11.1641C9.26719 11.6984 9.75234 11.7441 10.3711 11.6527C10.7473 11.5965 11.5242 11.1816 11.6859 10.7246C11.8477 10.2676 11.8477 9.87734 11.7984 9.79648C11.7527 9.70859 11.6227 9.65938 11.4293 9.56445Z" fill="black"/>
</svg>
